<svg width="661" height="495" viewBox="0 0 661 495" fill="none" xmlns="http://www.w3.org/2000/svg">
<path d="M479.862 85.5678L188.626 86.3291L189.122 275.27L480.357 274.509L479.862 85.5678Z" fill="#24285B"/>
<path d="M312.653 253.39L301.779 323.581L375.547 323.4L358.41 253.275L312.653 253.39Z" fill="#C9C9C9"/>
<path opacity="0.24" d="M338.943 422.041C466.257 421.708 569.406 398.811 569.333 370.899C569.26 342.987 465.992 320.63 338.678 320.962C211.363 321.295 108.214 344.192 108.287 372.104C108.36 400.016 211.628 422.374 338.943 422.041Z" fill="#E6E6E6"/>
<path d="M388.689 311.031L284.929 311.302L284.988 333.858L388.748 333.586L388.689 311.031Z" fill="#E6E6E6"/>
<path d="M212.346 110.204C215.157 110.204 217.436 107.928 217.436 105.122C217.436 102.315 215.157 100.04 212.346 100.04C209.535 100.04 207.256 102.315 207.256 105.122C207.256 107.928 209.535 110.204 212.346 110.204Z" fill="white"/>
<path d="M227.516 110.171C230.327 110.171 232.606 107.895 232.606 105.089C232.606 102.282 230.327 100.007 227.516 100.007C224.705 100.007 222.427 102.282 222.427 105.089C222.427 107.895 224.705 110.171 227.516 110.171Z" fill="#00E539"/>
<path d="M241.794 110.137C244.605 110.137 246.883 107.862 246.883 105.055C246.883 102.249 244.605 99.9734 241.794 99.9734C238.983 99.9734 236.704 102.249 236.704 105.055C236.704 107.862 238.983 110.137 241.794 110.137Z" fill="#FFD200"/>
<path d="M480.261 238.043L189.026 238.804L189.121 275.269L480.357 274.508L480.261 238.043Z" fill="#E6E6E6"/>
<path d="M337.821 266.607C343.315 266.607 347.769 262.16 347.769 256.674C347.769 251.188 343.315 246.741 337.821 246.741C332.326 246.741 327.873 251.188 327.873 256.674C327.873 262.16 332.326 266.607 337.821 266.607Z" fill="#A5A5A5"/>
<path d="M508.676 46.0083L416.88 46.2483L417.079 122.214L508.875 121.974L508.676 46.0083Z" fill="#FFD200"/>
<path d="M434.359 352.357L342.513 352.588L332.863 352.605L241.017 352.836L218.741 411.988L333.012 411.691L342.662 411.675L456.949 411.378L434.359 352.357Z" fill="#E6E6E6"/>
<path d="M378.902 362.34L330.368 362.456L323.031 362.489L248.933 362.67L236.39 402.089L323.13 401.874L330.467 401.858L393.229 401.693L378.902 362.34Z" fill="#C9C9C9"/>
<path opacity="0.42" d="M388.8 362.307L404.301 401.66L442.226 401.561L425.949 362.225L388.8 362.307Z" fill="#C9C9C9"/>
<path d="M218.741 411.988L226.954 422.944L447.332 422.383L456.949 411.378L218.741 411.988Z" fill="#C9C9C9"/>
<path d="M448.515 92.7453L432.337 92.7876L432.371 105.542L448.549 105.5L448.515 92.7453Z" fill="white"/>
<path d="M471.762 85.111L455.584 85.1533L455.638 105.498L471.816 105.455L471.762 85.111Z" fill="white"/>
<path d="M494.237 72.9411L478.06 72.9834L478.145 105.439L494.323 105.396L494.237 72.9411Z" fill="white"/>
<path d="M439.268 87.12L449.48 73.0785L464.914 76.824L481.34 60.3735" stroke="#24285B" stroke-width="2" stroke-linecap="round" stroke-linejoin="round"/>
<path d="M477.605 60.3899L482.15 59.3669L481.704 64.0034" stroke="#24285B" stroke-width="2" stroke-linecap="round" stroke-linejoin="round"/>
<path d="M394.464 99.5525L263.983 99.8936L264.01 110.074L394.491 109.733L394.464 99.5525Z" fill="white"/>
<path d="M394.447 99.536L374.981 99.5869L375.008 109.767L394.474 109.716L394.447 99.536Z" fill="#00E539"/>
<path d="M284.476 138.12L212.443 138.308L212.602 198.912L284.634 198.724L284.476 138.12Z" fill="#00E539"/>
<path opacity="0.52" d="M212.594 198.924L232.408 160.644L249.098 189.387L264.152 171.023L284.627 198.743L212.594 198.924Z" fill="white"/>
<path d="M250.75 165.528C254.739 165.528 257.972 162.3 257.972 158.317C257.972 154.335 254.739 151.107 250.75 151.107C246.762 151.107 243.529 154.335 243.529 158.317C243.529 162.3 246.762 165.528 250.75 165.528Z" fill="white"/>
<path opacity="0.23" d="M264.263 206.351L232.882 206.433L232.9 213.495L264.281 213.413L264.263 206.351Z" fill="white"/>
<path opacity="0.06" d="M459.606 137.678L298.967 138.098L299.189 222.809L459.828 222.389L459.606 137.678Z" fill="white"/>
<path d="M384.852 145.877L307.912 146.078L307.931 153.47L384.872 153.268L384.852 145.877Z" fill="#00E539"/>
<path d="M384.996 206.992L308.056 207.193L308.075 214.585L385.015 214.384L384.996 206.992Z" fill="#00E539"/>
<path d="M446.963 162.165L307.938 162.528L307.958 169.92L446.982 169.557L446.963 162.165Z" fill="white"/>
<path opacity="0.65" d="M446.999 175.925L307.975 176.289L307.994 183.681L447.018 183.317L446.999 175.925Z" fill="white"/>
<path opacity="0.23" d="M447.035 189.587L308.01 189.951L308.03 197.343L447.054 196.979L447.035 189.587Z" fill="white"/>
<path d="M240.087 206.463L137.187 206.732L137.43 299.495L240.331 299.226L240.087 206.463Z" fill="#E6E6E6"/>
<path d="M240.128 228.424L137.228 228.693L137.413 299.478L240.314 299.209L240.128 228.424Z" fill="#F2F2F2"/>
<path d="M148.807 221.826C151.043 221.826 152.856 220.016 152.856 217.783C152.856 215.551 151.043 213.741 148.807 213.741C146.571 213.741 144.759 215.551 144.759 217.783C144.759 220.016 146.571 221.826 148.807 221.826Z" fill="#24285B"/>
<path d="M160.871 221.793C163.107 221.793 164.92 219.983 164.92 217.751C164.92 215.518 163.107 213.708 160.871 213.708C158.635 213.708 156.822 215.518 156.822 217.751C156.822 219.983 158.635 221.793 160.871 221.793Z" fill="#00E539"/>
<path d="M172.24 221.76C174.476 221.76 176.289 219.95 176.289 217.718C176.289 215.485 174.476 213.675 172.24 213.675C170.004 213.675 168.191 215.485 168.191 217.718C168.191 219.95 170.004 221.76 172.24 221.76Z" fill="#FFD200"/>
<path d="M191.69 241.758C190.622 241.144 189.442 240.747 188.22 240.589C186.998 240.431 185.756 240.515 184.566 240.837C183.377 241.159 182.262 241.712 181.287 242.465C180.312 243.217 179.495 244.155 178.883 245.223L162.87 273.092C162.215 274.16 161.781 275.35 161.594 276.589C161.407 277.828 161.471 279.092 161.782 280.306C162.093 281.52 162.645 282.66 163.405 283.658C164.165 284.655 165.117 285.49 166.206 286.114C167.294 286.737 168.497 287.137 169.743 287.288C170.989 287.439 172.253 287.339 173.46 286.994C174.666 286.649 175.791 286.066 176.768 285.28C177.745 284.493 178.554 283.518 179.147 282.414L195.16 254.546C196.397 252.39 196.727 249.832 196.076 247.435C195.425 245.037 193.848 242.995 191.69 241.758Z" fill="#00E539"/>
<path opacity="0.46" d="M191.69 241.758C190.622 241.144 189.442 240.747 188.22 240.589C186.998 240.431 185.756 240.515 184.566 240.837C183.377 241.159 182.262 241.712 181.287 242.465C180.312 243.217 179.495 244.155 178.883 245.223L162.87 273.092C162.215 274.16 161.781 275.35 161.594 276.589C161.407 277.828 161.471 279.092 161.782 280.306C162.093 281.52 162.645 282.66 163.405 283.658C164.165 284.655 165.117 285.49 166.206 286.114C167.294 286.737 168.497 287.137 169.743 287.288C170.989 287.439 172.253 287.339 173.46 286.994C174.666 286.649 175.791 286.066 176.768 285.28C177.745 284.493 178.554 283.518 179.147 282.414L195.16 254.546C196.397 252.39 196.727 249.832 196.076 247.435C195.425 245.037 193.848 242.995 191.69 241.758Z" fill="white"/>
<path d="M180.122 275.303C179.716 273.82 178.95 272.461 177.893 271.345C176.835 270.228 175.519 269.389 174.059 268.902C172.6 268.414 171.042 268.293 169.525 268.549C168.007 268.805 166.576 269.43 165.358 270.369C164.14 271.308 163.173 272.533 162.541 273.934C161.91 275.335 161.633 276.87 161.737 278.403C161.841 279.937 162.321 281.421 163.135 282.724C163.95 284.028 165.073 285.112 166.407 285.879C168.016 286.805 169.864 287.233 171.716 287.108C173.569 286.983 175.343 286.311 176.813 285.178C178.282 284.045 179.381 282.501 179.971 280.743C180.56 278.984 180.613 277.091 180.122 275.303Z" fill="#A0ED83"/>
<path d="M211.52 272.959L195.358 245.173C194.762 244.068 193.948 243.094 192.967 242.309C191.986 241.524 190.857 240.943 189.647 240.602C188.437 240.261 187.171 240.166 185.923 240.323C184.675 240.48 183.472 240.886 182.385 241.516C181.297 242.146 180.348 242.988 179.592 243.992C178.837 244.996 178.291 246.141 177.988 247.359C177.684 248.578 177.629 249.845 177.826 251.085C178.022 252.325 178.466 253.513 179.131 254.578L195.292 282.381C195.905 283.458 196.726 284.403 197.706 285.162C198.687 285.92 199.809 286.477 201.007 286.8C202.204 287.123 203.454 287.205 204.684 287.043C205.914 286.881 207.099 286.476 208.172 285.854C209.244 285.231 210.182 284.402 210.932 283.415C211.682 282.429 212.228 281.303 212.539 280.104C212.851 278.905 212.921 277.656 212.746 276.43C212.571 275.204 212.154 274.024 211.52 272.959Z" fill="#00E539"/>
<path d="M180.122 275.303C179.716 273.82 178.95 272.461 177.893 271.345C176.835 270.228 175.519 269.389 174.059 268.902C172.6 268.414 171.042 268.293 169.525 268.549C168.007 268.805 166.576 269.43 165.358 270.369C164.14 271.308 163.173 272.533 162.541 273.934C161.91 275.335 161.633 276.87 161.737 278.403C161.841 279.937 162.321 281.421 163.135 282.724C163.95 284.028 165.073 285.112 166.407 285.879C168.016 286.805 169.864 287.233 171.716 287.108C173.569 286.983 175.343 286.311 176.813 285.178C178.282 284.045 179.381 282.501 179.971 280.743C180.56 278.984 180.613 277.091 180.122 275.303Z" fill="#00E539"/>
<path opacity="0.06" d="M180.122 275.303C179.716 273.82 178.95 272.461 177.893 271.345C176.835 270.228 175.519 269.389 174.059 268.902C172.6 268.414 171.042 268.293 169.525 268.549C168.007 268.805 166.576 269.43 165.358 270.369C164.14 271.308 163.173 272.533 162.541 273.934C161.91 275.335 161.633 276.87 161.737 278.403C161.841 279.937 162.321 281.421 163.135 282.724C163.95 284.028 165.073 285.112 166.407 285.879C168.016 286.805 169.864 287.233 171.716 287.108C173.569 286.983 175.343 286.311 176.813 285.178C178.282 284.045 179.381 282.501 179.971 280.743C180.56 278.984 180.613 277.091 180.122 275.303Z" fill="black"/>
<path opacity="0.06" d="M255.538 206.423L240.087 206.463L240.267 275.136L255.718 275.095L255.538 206.423Z" fill="black"/>
<path opacity="0.06" d="M479.957 122.05L432.415 122.174L432.455 137.733L479.998 137.609L479.957 122.05Z" fill="black"/>
<path d="M465.344 323.747V333.383C465.344 337.755 477.589 341.253 492.626 341.187C507.664 341.121 519.86 337.524 519.843 333.152V323.516L465.344 323.747Z" fill="#FFD200"/>
<path d="M465.394 335.363V345.015C465.394 349.388 477.639 352.869 492.676 352.803C507.714 352.737 519.909 349.157 519.893 344.784V335.132L465.394 335.363Z" fill="#FFD200"/>
<path opacity="0.08" d="M465.394 335.363V345.015C465.394 349.388 477.639 352.869 492.676 352.803C507.714 352.737 519.909 349.157 519.893 344.784V335.132L465.394 335.363Z" fill="black"/>
<path d="M492.92 342.786C507.833 342.723 519.907 339.164 519.889 334.835C519.871 330.507 507.767 327.048 492.854 327.111C477.942 327.173 465.867 330.733 465.885 335.061C465.904 339.39 478.007 342.848 492.92 342.786Z" fill="#FFD200"/>
<path opacity="0.08" d="M465.344 323.747V333.383C465.344 337.755 477.589 341.253 492.626 341.187C507.664 341.121 519.86 337.524 519.843 333.152V323.516L465.344 323.747Z" fill="black"/>
<path d="M467.277 312.213V321.849C467.277 326.221 479.522 329.719 494.56 329.653C509.598 329.587 521.793 325.99 521.777 321.618V311.982L467.277 312.213Z" fill="#FFD200"/>
<path d="M465.245 300.597V310.233C465.245 314.605 477.49 318.103 492.528 318.037C507.566 317.971 519.761 314.374 519.745 310.002V300.366L465.245 300.597Z" fill="#FFD200"/>
<path d="M492.872 331.269C507.785 331.206 519.859 327.647 519.841 323.318C519.823 318.99 507.719 315.531 492.806 315.594C477.894 315.656 465.819 319.216 465.838 323.544C465.856 327.873 477.959 331.331 492.872 331.269Z" fill="#FFD200"/>
<path opacity="0.08" d="M467.277 312.213V321.849C467.277 326.221 479.522 329.719 494.56 329.653C509.598 329.587 521.793 325.99 521.777 321.618V311.982L467.277 312.213Z" fill="black"/>
<path d="M494.791 319.843C509.703 319.781 521.777 316.221 521.759 311.893C521.741 307.564 509.637 304.106 494.725 304.168C479.812 304.23 467.738 307.79 467.756 312.118C467.774 316.447 479.878 319.905 494.791 319.843Z" fill="#FFD200"/>
<path opacity="0.08" d="M465.245 300.597V310.233C465.245 314.605 477.49 318.103 492.528 318.037C507.566 317.971 519.761 314.374 519.745 310.002V300.366L465.245 300.597Z" fill="black"/>
<path opacity="0.08" d="M466.401 354.684C477.572 354.684 486.628 345.642 486.628 334.488C486.628 323.334 477.572 314.292 466.401 314.292C455.231 314.292 446.175 323.334 446.175 334.488C446.175 345.642 455.231 354.684 466.401 354.684Z" fill="black"/>
<path opacity="0.08" d="M479.82 314.226C479.82 314.226 501.005 320.628 497.683 352.655C497.683 352.655 483.885 353.15 477.325 351.5C471.458 349.998 479.82 314.226 479.82 314.226Z" fill="black"/>
<path d="M492.512 308.335C507.561 308.272 519.746 304.712 519.728 300.384C519.71 296.055 507.495 292.597 492.446 292.66C477.396 292.723 465.211 296.283 465.229 300.612C465.247 304.94 477.462 308.398 492.512 308.335Z" fill="#FFD200"/>
<path d="M466.401 354.684C477.572 354.684 486.628 345.642 486.628 334.488C486.628 323.334 477.572 314.292 466.401 314.292C455.231 314.292 446.175 323.334 446.175 334.488C446.175 345.642 455.231 354.684 466.401 354.684Z" fill="#FFD200"/>
<path opacity="0.08" d="M466.401 354.684C477.572 354.684 486.628 345.642 486.628 334.488C486.628 323.334 477.572 314.292 466.401 314.292C455.231 314.292 446.175 323.334 446.175 334.488C446.175 345.642 455.231 354.684 466.401 354.684Z" fill="black"/>
<g opacity="0.08">
<path opacity="0.08" d="M465.41 348.595C476.581 348.595 485.637 339.553 485.637 328.399C485.637 317.245 476.581 308.203 465.41 308.203C454.239 308.203 445.184 317.245 445.184 328.399C445.184 339.553 454.239 348.595 465.41 348.595Z" fill="black"/>
</g>
<path d="M465.41 348.595C476.581 348.595 485.637 339.553 485.637 328.399C485.637 317.245 476.581 308.203 465.41 308.203C454.239 308.203 445.184 317.245 445.184 328.399C445.184 339.553 454.239 348.595 465.41 348.595Z" fill="#FFD200"/>
<path d="M466.22 317.79C466.782 317.79 466.963 317.988 466.963 318.565V319.77C467.97 319.877 468.928 320.254 469.737 320.861C470.546 321.468 471.175 322.283 471.557 323.218C471.855 323.812 471.723 324.142 471.062 324.439L469.839 324.984C469.277 325.264 468.996 325.132 468.665 324.538C468.407 323.923 467.958 323.407 467.384 323.065C466.81 322.724 466.141 322.575 465.476 322.641C463.361 322.641 462.402 323.268 462.402 324.687C462.449 325.109 462.638 325.502 462.938 325.802C463.239 326.102 463.633 326.291 464.055 326.337C464.697 326.499 465.348 326.62 466.005 326.7C467.131 326.749 468.244 326.961 469.31 327.327C469.842 327.506 470.339 327.774 470.781 328.119C471.223 328.582 471.568 329.128 471.795 329.726C472.022 330.324 472.126 330.961 472.103 331.6C472.103 334.306 470.301 336.138 467.145 336.55V337.854C467.145 338.415 466.98 338.613 466.402 338.629H465.03C464.468 338.629 464.27 338.431 464.253 337.854V336.6C463.142 336.525 462.078 336.123 461.196 335.444C460.314 334.766 459.652 333.842 459.296 332.788C459.081 332.244 459.296 331.881 459.858 331.65L461.08 331.204C461.692 330.973 461.973 331.122 462.254 331.749C462.512 332.401 462.971 332.954 463.566 333.328C464.16 333.702 464.858 333.877 465.559 333.828C467.856 333.828 468.996 333.085 468.979 331.633C469.001 331.294 468.906 330.957 468.711 330.679C468.516 330.4 468.232 330.195 467.905 330.099C467.114 329.813 466.284 329.651 465.443 329.62C464.311 329.559 463.196 329.319 462.138 328.911C461.258 328.642 460.499 328.078 459.987 327.314C459.475 326.551 459.243 325.635 459.329 324.72C459.329 322.047 460.981 320.248 464.204 319.77V318.549C464.204 317.988 464.402 317.79 464.98 317.773L466.22 317.79Z" fill="white"/>
</svg>
